/* XPM */
static char * zixx16_xpm[] = {
"16 16 141 2",
"  	c None",
". 	c #0F123B",
"+ 	c #050A37",
"@ 	c #0B0E3A",
"# 	c #080B39",
"$ 	c #12143C",
"% 	c #10133B",
"& 	c #23223E",
"* 	c #70634B",
"= 	c #645E4C",
"- 	c #656553",
"; 	c #6C6F5A",
"> 	c #645F4D",
", 	c #605545",
"' 	c #181A3C",
") 	c #13163C",
"! 	c #0B103B",
"~ 	c #554B44",
"{ 	c #463E3C",
"] 	c #534C46",
"^ 	c #090D39",
"/ 	c #10133A",
"( 	c #0F123A",
"_ 	c #070B37",
": 	c #564B3F",
"< 	c #423C42",
"[ 	c #10133C",
"} 	c #232239",
"| 	c #5A5249",
"1 	c #37323C",
"2 	c #403A42",
"3 	c #14163C",
"4 	c #23223D",
"5 	c #48403F",
"6 	c #0E123A",
"7 	c #665B4C",
"8 	c #46454A",
"9 	c #505153",
"0 	c #535656",
"a 	c #48464B",
"b 	c #27263D",
"c 	c #5D5143",
"d 	c #11143B",
"e 	c #0E123B",
"f 	c #716148",
"g 	c #50473E",
"h 	c #574D40",
"i 	c #5E5242",
"j 	c #1D1D39",
"k 	c #1D1E37",
"l 	c #1E2038",
"m 	c #1A1D38",
"n 	c #746D4F",
"o 	c #121438",
"p 	c #0A0E38",
"q 	c #5C5147",
"r 	c #070B39",
"s 	c #5B5046",
"t 	c #070C3A",
"u 	c #080D3A",
"v 	c #383342",
"w 	c #474950",
"x 	c #393943",
"y 	c #0D103A",
"z 	c #0A0F3A",
"A 	c #0D113B",
"B 	c #564C44",
"C 	c #423B43",
"D 	c #22213C",
"E 	c #171A3D",
"F 	c #72755F",
"G 	c #0E113A",
"H 	c #14163B",
"I 	c #060B39",
"J 	c #0B0F3A",
"K 	c #584E46",
"L 	c #0C0F37",
"M 	c #070A37",
"N 	c #848362",
"O 	c #070A36",
"P 	c #403A43",
"Q 	c #24243E",
"R 	c #5C5148",
"S 	c #5C5145",
"T 	c #0E1139",
"U 	c #636052",
"V 	c #1A1C3B",
"W 	c #3F3943",
"X 	c #24243F",
"Y 	c #11133B",
"Z 	c #0D103B",
"` 	c #5C5246",
" .	c #0C103B",
"..	c #11143C",
"+.	c #615445",
"@.	c #070C39",
"#.	c #302E42",
"$.	c #787053",
"%.	c #47484F",
"&.	c #494C53",
"*.	c #44424A",
"=.	c #2D2B3E",
"-.	c #534A3F",
";.	c #594E45",
">.	c #191A39",
",.	c #554B45",
"'.	c #1C1D38",
").	c #23243A",
"!.	c #26283C",
"~.	c #272A3E",
"{.	c #1A1D37",
"].	c #60554A",
"^.	c #0C1039",
"/.	c #655847",
"(.	c #423B3D",
"_.	c #373341",
":.	c #040938",
"<.	c #5E544A",
"[.	c #0D1039",
"}.	c #4B4344",
"|.	c #2F2D3C",
"1.	c #10143D",
"2.	c #3F393B",
"3.	c #5C5045",
"4.	c #0A0E39",
"5.	c #000536",
"6.	c #63584B",
"7.	c #655846",
"8.	c #2F2D3B",
"9.	c #13163D",
"0.	c #14173E",
"a.	c #111437",
"b.	c #5D5242",
"c.	c #635D4B",
"d.	c #6A6955",
"e.	c #6D705A",
"f.	c #635E4C",
"g.	c #0C1037",
"h.	c #0A0D3A",
"i.	c #040837",
"j.	c #050837",
"          . + @ # + $           ",
"      % & * = - ; > , ' )       ",
"    ! ~ { ] ^ / / ( _ : < [     ",
"  % ~ } ( | ^ / / / / ( 1 2 3   ",
"  4 5 / 6 7 8 9 0 a b / ( c d   ",
"e f g h i j k l m n o / / p q   ",
"r s t u v 4 / / w x / / / y s z ",
"A B / / C D / E F G H / / / q I ",
"J K / / L ( M N O / P Q / / R I ",
"r S ( / / T U V / / W X Y Z `  .",
"..+.@./ / #.$.%.&.*.=.g g -.;.  ",
"  >.,.( / '.).!.~.{.]./ ^./.^.  ",
"  ) (._.( / / / / :.<.[.}.|.    ",
"    1.2.3.4.[./ / 5.6.7.8.9.    ",
"      0.a.b.c.d.e.f.h g.        ",
"            h.i.j.J             "};
