/* XPM */
static char * zixx32_xpm[] = {
"32 32 332 2",
"  	c None",
". 	c #15183D",
"+ 	c #13163C",
"@ 	c #15173E",
"# 	c #10133A",
"$ 	c #11143B",
"% 	c #14173D",
"& 	c #12153C",
"* 	c #10143B",
"= 	c #13163D",
"- 	c #0C1039",
"; 	c #010535",
"> 	c #020636",
", 	c #0E103A",
"' 	c #000033",
") 	c #050936",
"! 	c #0E123A",
"~ 	c #0F123A",
"{ 	c #0A0E39",
"] 	c #534C48",
"^ 	c #95895F",
"/ 	c #CABE74",
"( 	c #C0BA6B",
"_ 	c #B4B36A",
": 	c #BEC274",
"< 	c #D0D07C",
"[ 	c #C6BD78",
"} 	c #827859",
"| 	c #3D3943",
"1 	c #030838",
"2 	c #11133A",
"3 	c #0E113A",
"4 	c #6E5F4A",
"5 	c #B39851",
"6 	c #928051",
"7 	c #1E1E31",
"8 	c #000028",
"9 	c #090C39",
"0 	c #0B0F3C",
"a 	c #0B0E3C",
"b 	c #060934",
"c 	c #000026",
"d 	c #313037",
"e 	c #6E603D",
"f 	c #B29856",
"g 	c #514946",
"h 	c #060B38",
"i 	c #14163C",
"j 	c #0D1039",
"k 	c #393442",
"l 	c #B19551",
"m 	c #453D36",
"n 	c #151836",
"o 	c #847551",
"p 	c #0D1139",
"q 	c #10133D",
"r 	c #080C2E",
"s 	c #64573A",
"t 	c #A89057",
"u 	c #1A1B3C",
"v 	c #11143A",
"w 	c #12153B",
"x 	c #090D38",
"y 	c #5E5248",
"z 	c #967E47",
"A 	c #0C1032",
"B 	c #23223E",
"C 	c #1F1F2E",
"D 	c #AF9552",
"E 	c #2B293F",
"F 	c #13153C",
"G 	c #816E43",
"H 	c #070B36",
"I 	c #0F1233",
"J 	c #AC9251",
"K 	c #28263F",
"L 	c #16183E",
"M 	c #15173D",
"N 	c #393542",
"O 	c #967F48",
"P 	c #111434",
"Q 	c #B29754",
"R 	c #13153B",
"S 	c #0F1239",
"T 	c #B19552",
"U 	c #0D1035",
"V 	c #837451",
"W 	c #0B0F39",
"X 	c #0E1139",
"Y 	c #2E2B36",
"Z 	c #968154",
"` 	c #070C38",
" .	c #6F604A",
"..	c #463E3B",
"+.	c #24233F",
"@.	c #AE995C",
"#.	c #837959",
"$.	c #898260",
"%.	c #8D8B67",
"&.	c #93946F",
"*.	c #989E76",
"=.	c #92936E",
"-.	c #8B8663",
";.	c #7F7557",
">.	c #716449",
",.	c #0B0E3A",
"'.	c #0C103B",
").	c #827046",
"!.	c #353141",
"~.	c #0A0E3A",
"{.	c #AB9050",
"].	c #000036",
"^.	c #050A39",
"/.	c #101339",
"(.	c #2B2931",
"_.	c #2B2933",
":.	c #2C2B35",
"<.	c #2D2D37",
"[.	c #2E2F38",
"}.	c #2F313A",
"|.	c #202132",
"1.	c #B4A463",
"2.	c #2F2C36",
"3.	c #1A1A35",
"4.	c #9B8554",
"5.	c #15183E",
"6.	c #514845",
"7.	c #9E8549",
"8.	c #9F8744",
"9.	c #9F8644",
"0.	c #B5994F",
"a.	c #3A3540",
"b.	c #666356",
"c.	c #6F6848",
"d.	c #0E113C",
"e.	c #9A844C",
"f.	c #17193C",
"g.	c #8B764F",
"h.	c #1C1D3A",
"i.	c #0B0F3B",
"j.	c #0A0E3B",
"k.	c #6A5C4B",
"l.	c #353140",
"m.	c #2A2C45",
"n.	c #BBB36D",
"o.	c #050935",
"p.	c #574C43",
"q.	c #4F4646",
"r.	c #020737",
"s.	c #B59854",
"t.	c #000637",
"u.	c #6D5D4A",
"v.	c #0A0D38",
"w.	c #D3D285",
"x.	c #171A35",
"y.	c #2B2A3D",
"z.	c #7B6B4E",
"A.	c #060C3A",
"B.	c #A58C50",
"C.	c #090E39",
"D.	c #060936",
"E.	c #ACB17E",
"F.	c #4C4D48",
"G.	c #111439",
"H.	c #9C8553",
"I.	c #937D4E",
"J.	c #0C0F39",
"K.	c #73634C",
"L.	c #2F2C3D",
"M.	c #565857",
"N.	c #9CA16D",
"O.	c #080B37",
"P.	c #26253E",
"Q.	c #13163B",
"R.	c #010737",
"S.	c #AA9256",
"T.	c #080D38",
"U.	c #11133B",
"V.	c #96804F",
"W.	c #060930",
"X.	c #1C1E3F",
"Y.	c #D1D181",
"Z.	c #080B34",
"`.	c #6F604B",
" +	c #393441",
".+	c #040939",
"++	c #A88F54",
"@+	c #090D39",
"#+	c #AE9254",
"$+	c #050836",
"%+	c #C5C07A",
"&+	c #252739",
"*+	c #6C5E4A",
"=+	c #363241",
"-+	c #181A3C",
";+	c #947E50",
">+	c #060B39",
",+	c #AE9451",
"'+	c #000638",
")+	c #7F7A5E",
"!+	c #5F5E4B",
"~+	c #10133C",
"{+	c #353241",
"]+	c #716249",
"^+	c #161A3F",
"/+	c #7A6948",
"(+	c #2F2C40",
"_+	c #393846",
":+	c #A79D61",
"<+	c #040735",
"[+	c #3A3642",
"}+	c #15173B",
"|+	c #6B5D4A",
"1+	c #423C40",
"2+	c #3E383E",
"3+	c #6D5E4A",
"4+	c #0F133A",
"5+	c #C0AF65",
"6+	c #0E1134",
"7+	c #50463C",
"8+	c #8B763E",
"9+	c #8E793F",
"0+	c #88733C",
"a+	c #C3A55A",
"b+	c #090D36",
"c+	c #10143A",
"d+	c #040937",
"e+	c #B29651",
"f+	c #9C8A59",
"g+	c #8F8358",
"h+	c #78725C",
"i+	c #7B7961",
"j+	c #808168",
"k+	c #84896D",
"l+	c #7F7F67",
"m+	c #78745D",
"n+	c #736B56",
"o+	c #655A4A",
"p+	c #080C3B",
"q+	c #0D113E",
"r+	c #323046",
"s+	c #7B6A47",
"t+	c #0E123B",
"u+	c #52483F",
"v+	c #655848",
"w+	c #383436",
"x+	c #393639",
"y+	c #3A393B",
"z+	c #3B3C3D",
"A+	c #3E3F40",
"B+	c #3F4342",
"C+	c #3D3F40",
"D+	c #3A3B3C",
"E+	c #2C2C35",
"F+	c #AE9759",
"G+	c #050A38",
"H+	c #040938",
"I+	c #AA9056",
"J+	c #191A35",
"K+	c #060B36",
"L+	c #A78D4E",
"M+	c #20203D",
"N+	c #B09959",
"O+	c #040A38",
"P+	c #594E47",
"Q+	c #685A40",
"R+	c #0F123C",
"S+	c #191A34",
"T+	c #AE9352",
"U+	c #0F133B",
"V+	c #2D2B3F",
"W+	c #A68E4E",
"X+	c #060A35",
"Y+	c #2B2833",
"Z+	c #AB9154",
"`+	c #10123A",
" @	c #2D2B40",
".@	c #AE9351",
"+@	c #101335",
"@@	c #11143C",
"#@	c #272431",
"$@	c #B19553",
"%@	c #2E2B40",
"&@	c #584E47",
"*@	c #A68D4E",
"=@	c #101334",
"-@	c #16193E",
";@	c #131431",
">@	c #957E45",
",@	c #816E4F",
"'@	c #191A3C",
")@	c #0A0E38",
"!@	c #000537",
"~@	c #AD9659",
"{@	c #28273F",
"]@	c #A99159",
"^@	c #67593B",
"/@	c #060B34",
"(@	c #060B37",
"_@	c #343033",
":@	c #998145",
"<@	c #9F8C5B",
"[@	c #5B564E",
"}@	c #2E2E44",
"|@	c #0F123B",
"1@	c #000133",
"2@	c #181B3E",
"3@	c #393A48",
"4@	c #6A6353",
"5@	c #C0A65E",
"6@	c #7B693E",
"7@	c #17182D",
"8@	c #12143B",
"9@	c #16182D",
"0@	c #554E3F",
"a@	c #898252",
"b@	c #B3AE64",
"c@	c #CDCC7A",
"d@	c #D1D681",
"e@	c #B0AF6A",
"f@	c #7E7951",
"g@	c #45413B",
"h@	c #070B2B",
"i@	c #0F133D",
"j@	c #0E1138",
"k@	c #10133B",
"l@	c #0A0E3C",
"m@	c #070A35",
"n@	c #080A36",
"o@	c #14173C",
"p@	c #13173D",
"q@	c #171B40",
"                        . + @ # $ % & *                         ",
"                  = # # - ; > $ , ' ) ! # $ %                   ",
"              % ~ ~ { ] ^ / ( _ : < [ } | 1 # $                 ",
"            $ 2 3 4 5 6 7 8 9 0 a b c d e f g h # i             ",
"          # j k l m n o p # # # # # # # q r s t u v w           ",
"        # x y z A $ B o p # # # # # # # # # q C D E 2 F         ",
"      $ j y G H # # B o p # # # # # # # # # # $ I J K v L       ",
"    M 2 N O H # # # B o p # # # # # # # # # # # # P Q R S       ",
"    S ! T U # # # # B V W X X X j X X X 3 # # # # $ Y Z ` &     ",
"  + ~  ...$ # # # # +.@.#.$.%.&.*.=.-.;.>.,.# # # # '.).!.#     ",
"  # ~.{.].^.^.^.^.^./.(._.:.<.[.}.[.|.1.2.v # # # # # 3.4.{ 5.  ",
"  # 6.7.8.9.9.9.9.0.a.# # # # # # S b.c.d.# # # # # # ~.e.f.S   ",
"M j g.h.i.i.i.i.j.k.l.# # # # # v m.n.o.# # # # # # # v p.q.#   ",
"+ r.s.t.# # # # # u.l.# # # # # v.w.x.# # # # # # # # # y.z.3 /.",
"M A.B.C.# # # # # u.l.# # # # D.E.F.$ # # # # # # # # # G.H.{ = ",
"# R I.J.# # # # # K.L.# # # v M.N.O.# # # P.Q.# # # # # R.S.T.# ",
"2 U.V.J.# # # # # W.! # # # X.Y.Z.# # # # `. +# # # # # .+++@+$ ",
"M R.#+` # # # # # # # # # $+%+&+v # # # # *+=+# # # # # -+;+W & ",
"& >+,+'+# # # # # # # # J.)+!+~+# # # # # *+=+# # # # # {+]+~ ^+",
"$ ! /+(+# # # # # # # v _+:+<+# # # # # # *+[+}+}+}+}+}+|+1+#   ",
"  # 2+3+4+# # # # # # v 5+6+# # # # # # # 7+8+9+9+9+9+0+a+b+c+  ",
"  $ d+e+C.# # # # # >+f+g+h+i+j+k+l+m+n+o+p+q+q+q+q+q+r+s+t+%   ",
"  M # u+v+~ # # # # h.w+x+y+z+A+B+C+D+E+F+G+# # # # H+I+J+S     ",
"    $ K+L+M+v # # # # # # # # # # # # t.N+O+# # # ~ P+Q+R+@     ",
"      # S+T+U+# # # # # # # # # # # # t.N+O+# # # V+W+X+#       ",
"      % $ Y+Z+w v # # # # # # # # # # t.N+O+# `+ @.@+@S         ",
"        + @@#@$@%@- # # # # # # # # # t.N+G+H+&@*@=@# -@        ",
"          w $ ;@>@,@'@)@v # # # # # # !@~@{@]@^@/@S -@          ",
"            -@S (@_@:@<@[@}@|@' 1@2@3@4@5@6@7@q #               ",
"                8@# { 9@0@a@b@c@d@e@f@g@h@i@S %                 ",
"                    L j@k@d.l@m@n@a R+# $ o@                    ",
"                          S p@# $ & q@                          "};
